<mxfile host="app.diagrams.net" modified="2024-07-06T03:45:45.198Z" agent="Mozilla/5.0 (Windows NT 10.0; Win64; x64) AppleWebKit/537.36 (KHTML, like Gecko) Chrome/126.0.0.0 Safari/537.36 Edg/126.0.0.0" version="24.6.4" etag="Pck7COHIocn5p6d5ipX8" type="github">
  <diagram name="第 1 页" id="-98CBWGnuOH8aSOgS5v4">
    <mxGraphModel>
      <root>
        <mxCell id="0" />
        <mxCell id="1" parent="0" />
      </root>
    </mxGraphModel>
  </diagram>
</mxfile>
